<?xml version="1.0" encoding="utf-8"?>
<!-- Generator: Adobe Illustrator 24.3.0, SVG Export Plug-In . SVG Version: 6.00 Build 0)  -->
<svg version="1.1" id="Layer_1" xmlns="http://www.w3.org/2000/svg" xmlns:xlink="http://www.w3.org/1999/xlink" x="0px" y="0px"
	 viewBox="0 0 100 100" style="enable-background:new 0 0 100 100;" xml:space="preserve">
<style type="text/css">
	.st0{fill:#8CC63F;}
	.st1{fill:none;stroke:#000000;stroke-width:4;stroke-linecap:round;stroke-linejoin:round;stroke-miterlimit:10;}
</style>
<g>
	<path class="st0" d="M50,91.3c-21.9,0-39.7-16.5-39.7-36.7c0-8.8,3.4-17.2,9.6-23.9c4.4-4.7,7.9-9.3,10.6-13.9
		C35,9.2,42.3,4.7,50,4.7c7.7,0,15,4.5,19.5,12.1c2.8,4.7,6.3,9.2,10.6,13.9c6.2,6.6,9.6,15.1,9.6,23.9C89.7,74.8,71.9,91.3,50,91.3
		z"/>
	<path d="M50,6.7c7,0,13.6,4.2,17.8,11.2c2.8,4.8,6.4,9.4,10.9,14.3c5.8,6.3,9,14.3,9,22.5c0,19.1-16.9,34.7-37.7,34.7
		S12.3,73.7,12.3,54.6c0-8.3,3.2-16.2,9-22.5c4.5-4.8,8-9.5,10.9-14.3C36.4,10.8,43,6.7,50,6.7 M50,2.7c-8.7,0-16.5,5.2-21.2,13.1
		c-3,5-6.6,9.5-10.4,13.6C12.1,36.1,8.3,45,8.3,54.6C8.3,76,27,93.3,50,93.3S91.7,76,91.7,54.6c0-9.6-3.8-18.5-10.1-25.2
		c-3.8-4.1-7.4-8.6-10.4-13.6C66.5,7.8,58.7,2.7,50,2.7L50,2.7z"/>
</g>
<g>
	<circle cx="29.1" cy="52.2" r="5.9"/>
</g>
<g>
	<circle cx="70.9" cy="52.2" r="5.9"/>
</g>
<path class="st1" d="M56,57.9c0,3.2-2.6,5.9-5.9,5.9s-5.9-2.6-5.9-5.9"/>
</svg>
